BioRhyme-Light.ufo
<glyph name="exclam" format="1">
  <advance width="233"/>
  <unicode hex="0021"/>
  <outline>
    <contour>
      <point x="124" y="148" type="line"/>
      <point x="128" y="272" type="line" smooth="yes"/>
      <point x="133" y="423"/>
      <point x="144" y="524"/>
      <point x="144" y="542" type="curve"/>
      <point x="144" y="559"/>
      <point x="135" y="573"/>
      <point x="117" y="573" type="curve"/>
      <point x="98" y="573"/>
      <point x="89" y="559"/>
      <point x="89" y="542" type="curve"/>
      <point x="89" y="524"/>
      <point x="100" y="424"/>
      <point x="105" y="272" type="curve" smooth="yes"/>
      <point x="109" y="148" type="line"/>
    </contour>
    <contour>
      <point x="93" y="55"/>
      <point x="75" y="41"/>
      <point x="75" y="22" type="curve"/>
      <point x="75" y="4"/>
      <point x="93" y="-10"/>
      <point x="116" y="-10" type="curve"/>
      <point x="141" y="-10"/>
      <point x="158" y="4"/>
      <point x="158" y="22" type="curve"/>
      <point x="158" y="41"/>
      <point x="141" y="55"/>
      <point x="116" y="55" type="curve"/>
    </contour>
  </outline>
</glyph>
<glyph name="parenright" format="1">
  <advance width="237"/>
  <unicode hex="0029"/>
  <outline>
    <contour>
      <point x="90" y="-10"/>
      <point x="172" y="109"/>
      <point x="172" y="265" type="curve" smooth="yes"/>
      <point x="172" y="421"/>
      <point x="90" y="540"/>
      <point x="16" y="614" type="curve"/>
      <point x="5" y="600" type="line"/>
      <point x="73" y="526"/>
      <point x="147" y="413"/>
      <point x="147" y="265" type="curve" smooth="yes"/>
      <point x="147" y="117"/>
      <point x="73" y="4"/>
      <point x="5" y="-70" type="curve"/>
      <point x="16" y="-84" type="line"/>
    </contour>
  </outline>
</glyph>
<glyph name="colon" format="1">
  <advance width="219"/>
  <unicode hex="003A"/>
  <outline>
    <contour>
      <point x="134" y="301"/>
      <point x="151" y="315"/>
      <point x="151" y="333" type="curve"/>
      <point x="151" y="352"/>
      <point x="134" y="366"/>
      <point x="109" y="366" type="curve"/>
      <point x="86" y="366"/>
      <point x="68" y="352"/>
      <point x="68" y="333" type="curve"/>
      <point x="68" y="315"/>
      <point x="86" y="301"/>
      <point x="109" y="301" type="curve"/>
    </contour>
    <contour>
      <point x="134" y="-10"/>
      <point x="151" y="4"/>
      <point x="151" y="22" type="curve"/>
      <point x="151" y="41"/>
      <point x="134" y="55"/>
      <point x="109" y="55" type="curve"/>
      <point x="86" y="55"/>
      <point x="68" y="41"/>
      <point x="68" y="22" type="curve"/>
      <point x="68" y="4"/>
      <point x="86" y="-10"/>
      <point x="109" y="-10" type="curve"/>
    </contour>
  </outline>
</glyph>
<glyph name="less" format="1">
  <advance width="379"/>
  <unicode hex="003C"/>
  <outline>
    <contour>
      <point x="329" y="398" type="line"/>
      <point x="329" y="423" type="line"/>
      <point x="25" y="238" type="line"/>
      <point x="25" y="232" type="line"/>
      <point x="48" y="226" type="line"/>
    </contour>
    <contour>
      <point x="329" y="72" type="line"/>
      <point x="48" y="243" type="line"/>
      <point x="25" y="238" type="line"/>
      <point x="25" y="232" type="line"/>
      <point x="329" y="47" type="line"/>
    </contour>
  </outline>
</glyph>
<glyph name="at" format="1">
  <advance width="716"/>
  <unicode hex="0040"/>
  <outline>
    <contour>
      <point x="411" y="-138"/>
      <point x="467" y="-114"/>
      <point x="507" y="-91" type="curve"/>
      <point x="498" y="-71" type="line"/>
      <point x="458" y="-94"/>
      <point x="408" y="-115"/>
      <point x="338" y="-115" type="curve" smooth="yes"/>
      <point x="210" y="-115"/>
      <point x="65" y="-12"/>
      <point x="65" y="175" type="curve" smooth="yes"/>
      <point x="65" y="354"/>
      <point x="199" y="482"/>
      <point x="367" y="482" type="curve" smooth="yes"/>
      <point x="527" y="482"/>
      <point x="651" y="367"/>
      <point x="651" y="211" type="curve" smooth="yes"/>
      <point x="651" y="100"/>
      <point x="599" y="47"/>
      <point x="548" y="47" type="curve" smooth="yes"/>
      <point x="511" y="47"/>
      <point x="482" y="77"/>
      <point x="482" y="120" type="curve" smooth="yes"/>
      <point x="482" y="223" type="line" smooth="yes"/>
      <point x="482" y="306"/>
      <point x="430" y="334"/>
      <point x="370" y="334" type="curve" smooth="yes"/>
      <point x="322" y="334"/>
      <point x="277" y="320"/>
      <point x="238" y="303" type="curve"/>
      <point x="244" y="279" type="line"/>
      <point x="282" y="296"/>
      <point x="322" y="309"/>
      <point x="370" y="309" type="curve" smooth="yes"/>
      <point x="417" y="309"/>
      <point x="457" y="287"/>
      <point x="457" y="223" type="curve" smooth="yes"/>
      <point x="457" y="120" type="line" smooth="yes"/>
      <point x="457" y="69"/>
      <point x="493" y="24"/>
      <point x="548" y="24" type="curve" smooth="yes"/>
      <point x="606" y="24"/>
      <point x="676" y="83"/>
      <point x="676" y="211" type="curve" smooth="yes"/>
      <point x="676" y="387"/>
      <point x="538" y="505"/>
      <point x="367" y="505" type="curve" smooth="yes"/>
      <point x="188" y="505"/>
      <point x="40" y="372"/>
      <point x="40" y="175" type="curve" smooth="yes"/>
      <point x="40" y="-25"/>
      <point x="200" y="-138"/>
      <point x="338" y="-138" type="curve" smooth="yes"/>
    </contour>
    <contour>
      <point x="382" y="20"/>
      <point x="426" y="47"/>
      <point x="471" y="82" type="curve"/>
      <point x="471" y="107" type="line"/>
      <point x="426" y="70"/>
      <point x="377" y="44"/>
      <point x="330" y="44" type="curve" smooth="yes"/>
      <point x="285" y="44"/>
      <point x="246" y="68"/>
      <point x="246" y="111" type="curve" smooth="yes"/>
      <point x="246" y="160"/>
      <point x="294" y="185"/>
      <point x="346" y="184" type="curve" smooth="yes"/>
      <point x="388" y="183"/>
      <point x="426" y="176"/>
      <point x="471" y="160" type="curve"/>
      <point x="471" y="182" type="line"/>
      <point x="429" y="197"/>
      <point x="391" y="207"/>
      <point x="346" y="207" type="curve" smooth="yes"/>
      <point x="273" y="207"/>
      <point x="221" y="169"/>
      <point x="221" y="111" type="curve" smooth="yes"/>
      <point x="221" y="52"/>
      <point x="271" y="20"/>
      <point x="327" y="20" type="curve" smooth="yes"/>
    </contour>
  </outline>
</glyph>
<glyph name="A" format="1">
  <advance width="672"/>
  <unicode hex="0041"/>
  <outline>
    <contour>
      <point x="125" y="13" type="line"/>
      <point x="335" y="502" type="line"/>
      <point x="335" y="502" type="line"/>
      <point x="545" y="13" type="line"/>
      <point x="573" y="13" type="line"/>
      <point x="355" y="510" type="line" smooth="yes"/>
      <point x="315" y="510" type="line"/>
      <point x="100" y="13" type="line"/>
    </contour>
    <contour>
      <point x="229" y="0" type="line"/>
      <point x="229" y="23" type="line"/>
      <point x="0" y="23" type="line"/>
      <point x="0" y="0" type="line"/>
    </contour>
    <contour>
      <point x="485" y="198" type="line"/>
      <point x="468" y="221" type="line"/>
      <point x="202" y="221" type="line"/>
      <point x="184" y="198" type="line"/>
    </contour>
    <contour>
      <point x="672" y="0" type="line"/>
      <point x="672" y="23" type="line"/>
      <point x="444" y="23" type="line"/>
      <point x="444" y="0" type="line"/>
    </contour>
    <contour>
      <point x="468" y="497" type="line"/>
      <point x="468" y="520" type="line"/>
      <point x="202" y="520" type="line"/>
      <point x="202" y="497" type="line"/>
    </contour>
    <contour>
      <point x="410" y="580" type="move" name="hook"/>
    </contour>
    <contour>
      <point x="573" y="13" type="move" name="ogonek"/>
    </contour>
    <contour>
      <point x="335" y="520" type="move" name="top"/>
    </contour>
    <contour>
      <point x="334" y="0" type="move" name="bottom"/>
    </contour>
  </outline>
</glyph>
<glyph name="T" format="1">
  <advance width="579"/>
  <unicode hex="0054"/>
  <outline>
    <contour>
      <point x="65" y="384" type="line"/>
      <point x="65" y="497" type="line"/>
      <point x="514" y="497" type="line"/>
      <point x="514" y="384" type="line"/>
      <point x="539" y="384" type="line"/>
      <point x="539" y="520" type="line"/>
      <point x="40" y="520" type="line"/>
      <point x="40" y="384" type="line"/>
    </contour>
    <contour>
      <point x="420" y="0" type="line"/>
      <point x="420" y="23" type="line"/>
      <point x="159" y="23" type="line"/>
      <point x="159" y="0" type="line"/>
    </contour>
    <contour>
      <point x="302" y="13" type="line"/>
      <point x="302" y="507" type="line"/>
      <point x="277" y="507" type="line"/>
      <point x="277" y="13" type="line"/>
    </contour>
    <contour>
      <point x="285" y="245" type="move" name="center"/>
    </contour>
    <contour>
      <point x="285" y="0" type="move" name="bottom"/>
    </contour>
    <contour>
      <point x="285" y="490" type="move" name="top"/>
    </contour>
  </outline>
</glyph>
<glyph name="Z" format="1">
  <advance width="538"/>
  <unicode hex="005A"/>
  <outline>
    <contour>
      <point x="493" y="0" type="line"/>
      <point x="493" y="136" type="line"/>
      <point x="468" y="136" type="line"/>
      <point x="468" y="23" type="line"/>
      <point x="97" y="23" type="line"/>
      <point x="77" y="20" type="line"/>
      <point x="77" y="21" type="line"/>
      <point x="97" y="32" type="line"/>
      <point x="489" y="507" type="line"/>
      <point x="489" y="520" type="line"/>
      <point x="45" y="520" type="line"/>
      <point x="45" y="384" type="line"/>
      <point x="70" y="384" type="line"/>
      <point x="70" y="497" type="line"/>
      <point x="440" y="497" type="line"/>
      <point x="460" y="500" type="line"/>
      <point x="460" y="499" type="line"/>
      <point x="440" y="488" type="line"/>
      <point x="48" y="13" type="line"/>
      <point x="48" y="0" type="line"/>
    </contour>
    <contour>
      <point x="277" y="520" type="move" name="top"/>
    </contour>
    <contour>
      <point x="277" y="0" type="move" name="bottom"/>
    </contour>
  </outline>
</glyph>
<glyph name="c" format="1">
  <advance width="430"/>
  <unicode hex="0063"/>
  <outline>
    <contour>
      <point x="302" y="-10"/>
      <point x="347" y="23"/>
      <point x="383" y="60" type="curve"/>
      <point x="367" y="77" type="line"/>
      <point x="334" y="42"/>
      <point x="292" y="12"/>
      <point x="226" y="13" type="curve" smooth="yes"/>
      <point x="151" y="14"/>
      <point x="70" y="74"/>
      <point x="70" y="174" type="curve" smooth="yes"/>
      <point x="70" y="273"/>
      <point x="137" y="344"/>
      <point x="226" y="344" type="curve" smooth="yes"/>
      <point x="298" y="344"/>
      <point x="346" y="309"/>
      <point x="373" y="237" type="curve"/>
      <point x="385" y="238" type="line"/>
      <point x="385" y="357" type="line"/>
      <point x="362" y="357" type="line"/>
      <point x="362" y="271" type="line"/>
      <point x="374" y="264" type="line"/>
      <point x="352" y="325"/>
      <point x="300" y="366"/>
      <point x="226" y="367" type="curve" smooth="yes"/>
      <point x="125" y="368"/>
      <point x="45" y="285"/>
      <point x="45" y="174" type="curve" smooth="yes"/>
      <point x="45" y="54"/>
      <point x="141" y="-10"/>
      <point x="226" y="-10" type="curve" smooth="yes"/>
    </contour>
    <contour>
      <point x="226" y="367" type="move" name="top"/>
    </contour>
    <contour>
      <point x="226" y="-10" type="move" name="bottom"/>
    </contour>
  </outline>
</glyph>
<glyph name="e" format="1">
  <advance width="412"/>
  <unicode hex="0065"/>
  <outline>
    <contour>
      <point x="291" y="-10"/>
      <point x="334" y="16"/>
      <point x="372" y="49" type="curve"/>
      <point x="358" y="67" type="line"/>
      <point x="324" y="36"/>
      <point x="287" y="14"/>
      <point x="228" y="13" type="curve" smooth="yes"/>
      <point x="147" y="12"/>
      <point x="70" y="72"/>
      <point x="70" y="167" type="curve" smooth="yes"/>
      <point x="70" y="282"/>
      <point x="155" y="343"/>
      <point x="232" y="343" type="curve" smooth="yes"/>
      <point x="298" y="343"/>
      <point x="346" y="309"/>
      <point x="346" y="257" type="curve" smooth="yes"/>
      <point x="346" y="204"/>
      <point x="285" y="180"/>
      <point x="229" y="180" type="curve" smooth="yes"/>
      <point x="169" y="180"/>
      <point x="115" y="195"/>
      <point x="64" y="213" type="curve"/>
      <point x="65" y="192" type="line"/>
      <point x="115" y="174"/>
      <point x="169" y="157"/>
      <point x="229" y="157" type="curve" smooth="yes"/>
      <point x="300" y="157"/>
      <point x="371" y="191"/>
      <point x="371" y="257" type="curve" smooth="yes"/>
      <point x="371" y="320"/>
      <point x="311" y="366"/>
      <point x="232" y="366" type="curve" smooth="yes"/>
      <point x="144" y="366"/>
      <point x="45" y="299"/>
      <point x="45" y="167" type="curve" smooth="yes"/>
      <point x="45" y="51"/>
      <point x="137" y="-10"/>
      <point x="228" y="-10" type="curve" smooth="yes"/>
    </contour>
    <contour>
      <point x="372" y="49" type="move" name="ogonek"/>
    </contour>
    <contour>
      <point x="227" y="-10" type="move" name="bottom"/>
    </contour>
    <contour>
      <point x="218" y="367" type="move" name="top"/>
    </contour>
  </outline>
</glyph>
<glyph name="g" format="1">
  <advance width="456"/>
  <unicode hex="0067"/>
  <outline>
    <contour>
      <point x="321" y="-169"/>
      <point x="431" y="-115"/>
      <point x="431" y="-24" type="curve" smooth="yes"/>
      <point x="431" y="27"/>
      <point x="391" y="55"/>
      <point x="339" y="55" type="curve" smooth="yes"/>
      <point x="274" y="55"/>
      <point x="210" y="22"/>
      <point x="148" y="22" type="curve" smooth="yes"/>
      <point x="89" y="22"/>
      <point x="68" y="51"/>
      <point x="68" y="82" type="curve" smooth="yes"/>
      <point x="68" y="119"/>
      <point x="98" y="145"/>
      <point x="138" y="164" type="curve"/>
      <point x="117" y="173" type="line"/>
      <point x="78" y="154"/>
      <point x="43" y="121"/>
      <point x="43" y="76" type="curve" smooth="yes"/>
      <point x="43" y="41"/>
      <point x="70" y="-2"/>
      <point x="148" y="-2" type="curve" smooth="yes"/>
      <point x="213" y="-2"/>
      <point x="270" y="32"/>
      <point x="334" y="32" type="curve" smooth="yes"/>
      <point x="375" y="32"/>
      <point x="406" y="13"/>
      <point x="406" y="-24" type="curve" smooth="yes"/>
      <point x="406" y="-101"/>
      <point x="311" y="-147"/>
      <point x="213" y="-147" type="curve" smooth="yes"/>
      <point x="124" y="-147"/>
      <point x="60" y="-109"/>
      <point x="60" y="-55" type="curve" smooth="yes"/>
      <point x="60" y="-18"/>
      <point x="87" y="10"/>
      <point x="119" y="21" type="curve"/>
      <point x="101" y="30" type="line"/>
      <point x="74" y="20"/>
      <point x="35" y="-11"/>
      <point x="35" y="-58" type="curve" smooth="yes"/>
      <point x="35" y="-124"/>
      <point x="109" y="-169"/>
      <point x="210" y="-169" type="curve" smooth="yes"/>
    </contour>
    <contour>
      <point x="312" y="108"/>
      <point x="379" y="155"/>
      <point x="379" y="238" type="curve" smooth="yes"/>
      <point x="379" y="322"/>
      <point x="302" y="367"/>
      <point x="231" y="367" type="curve" smooth="yes"/>
      <point x="160" y="367"/>
      <point x="83" y="321"/>
      <point x="83" y="237" type="curve" smooth="yes"/>
      <point x="83" y="153"/>
      <point x="159" y="108"/>
      <point x="231" y="108" type="curve" smooth="yes"/>
    </contour>
    <contour>
      <point x="172" y="131"/>
      <point x="108" y="165"/>
      <point x="108" y="237" type="curve" smooth="yes"/>
      <point x="108" y="307"/>
      <point x="173" y="344"/>
      <point x="231" y="344" type="curve" smooth="yes"/>
      <point x="289" y="344"/>
      <point x="354" y="310"/>
      <point x="354" y="238" type="curve" smooth="yes"/>
      <point x="354" y="168"/>
      <point x="299" y="131"/>
      <point x="231" y="131" type="curve" smooth="yes"/>
    </contour>
    <contour>
      <point x="350" y="380"/>
      <point x="376" y="403"/>
      <point x="428" y="406" type="curve"/>
      <point x="428" y="431" type="line"/>
      <point x="368" y="428"/>
      <point x="332" y="391"/>
      <point x="313" y="335" type="curve"/>
      <point x="327" y="319" type="line"/>
    </contour>
    <contour>
      <point x="232" y="387" type="move" name="top"/>
    </contour>
    <contour>
      <point x="232" y="-169" type="move" name="bottom"/>
    </contour>
  </outline>
</glyph>
<glyph name="k" format="1">
  <advance width="495"/>
  <unicode hex="006B"/>
  <outline>
    <contour>
      <point x="354" y="132"/>
      <point x="421" y="181"/>
      <point x="421" y="253" type="curve" smooth="yes"/>
      <point x="421" y="321"/>
      <point x="369" y="361"/>
      <point x="301" y="361" type="curve" smooth="yes"/>
      <point x="237" y="361"/>
      <point x="170" y="322"/>
      <point x="120" y="274" type="curve"/>
      <point x="120" y="251" type="line"/>
      <point x="171" y="299"/>
      <point x="237" y="338"/>
      <point x="301" y="338" type="curve" smooth="yes"/>
      <point x="357" y="338"/>
      <point x="396" y="307"/>
      <point x="396" y="253" type="curve" smooth="yes"/>
      <point x="396" y="188"/>
      <point x="331" y="154"/>
      <point x="267" y="155" type="curve" smooth="yes"/>
      <point x="220" y="156"/>
      <point x="171" y="170"/>
      <point x="120" y="195" type="curve"/>
      <point x="120" y="172" type="line"/>
      <point x="167" y="149"/>
      <point x="218" y="132"/>
      <point x="271" y="132" type="curve" smooth="yes"/>
    </contour>
    <contour>
      <point x="229" y="0" type="line"/>
      <point x="229" y="23" type="line"/>
      <point x="20" y="23" type="line"/>
      <point x="20" y="0" type="line"/>
    </contour>
    <contour>
      <point x="137" y="0" type="line"/>
      <point x="137" y="520" type="line"/>
      <point x="112" y="520" type="line"/>
      <point x="112" y="0" type="line"/>
    </contour>
    <contour>
      <point x="445" y="-10"/>
      <point x="473" y="12"/>
      <point x="490" y="31" type="curve"/>
      <point x="476" y="46" type="line"/>
      <point x="461" y="30"/>
      <point x="441" y="12"/>
      <point x="406" y="12" type="curve" smooth="yes"/>
      <point x="366" y="12"/>
      <point x="324" y="43"/>
      <point x="302" y="149" type="curve"/>
      <point x="279" y="149" type="line"/>
      <point x="299" y="40"/>
      <point x="347" y="-10"/>
      <point x="406" y="-10" type="curve" smooth="yes"/>
    </contour>
    <contour>
      <point x="137" y="497" type="line"/>
      <point x="137" y="520" type="line"/>
      <point x="20" y="520" type="line"/>
      <point x="20" y="497" type="line"/>
    </contour>
    <contour>
      <point x="276" y="387" type="move" name="top"/>
    </contour>
    <contour>
      <point x="276" y="0" type="move" name="bottom"/>
    </contour>
  </outline>
</glyph>
<glyph name="m" format="1">
  <advance width="785"/>
  <unicode hex="006D"/>
  <outline>
    <contour>
      <point x="142" y="334" type="line"/>
      <point x="142" y="357" type="line"/>
      <point x="25" y="357" type="line"/>
      <point x="25" y="334" type="line"/>
    </contour>
    <contour>
      <point x="142" y="0" type="line"/>
      <point x="142" y="357" type="line"/>
      <point x="117" y="357" type="line"/>
      <point x="117" y="0" type="line"/>
    </contour>
    <contour>
      <point x="217" y="0" type="line"/>
      <point x="217" y="23" type="line"/>
      <point x="25" y="23" type="line"/>
      <point x="25" y="0" type="line"/>
    </contour>
    <contour>
      <point x="414" y="0" type="line"/>
      <point x="414" y="239" type="line" smooth="yes"/>
      <point x="414" y="324"/>
      <point x="372" y="367"/>
      <point x="308" y="367" type="curve" smooth="yes"/>
      <point x="239" y="367"/>
      <point x="179" y="317"/>
      <point x="128" y="254" type="curve"/>
      <point x="128" y="231" type="line"/>
      <point x="180" y="296"/>
      <point x="245" y="344"/>
      <point x="303" y="344" type="curve" smooth="yes"/>
      <point x="362" y="344"/>
      <point x="389" y="304"/>
      <point x="389" y="234" type="curve" smooth="yes"/>
      <point x="389" y="0" type="line"/>
    </contour>
    <contour>
      <point x="489" y="0" type="line"/>
      <point x="489" y="23" type="line"/>
      <point x="314" y="23" type="line"/>
      <point x="314" y="0" type="line"/>
    </contour>
    <contour>
      <point x="686" y="0" type="line"/>
      <point x="686" y="239" type="line" smooth="yes"/>
      <point x="686" y="324"/>
      <point x="644" y="367"/>
      <point x="580" y="367" type="curve" smooth="yes"/>
      <point x="511" y="367"/>
      <point x="451" y="317"/>
      <point x="400" y="254" type="curve"/>
      <point x="400" y="231" type="line"/>
      <point x="452" y="296"/>
      <point x="517" y="344"/>
      <point x="575" y="344" type="curve" smooth="yes"/>
      <point x="634" y="344"/>
      <point x="661" y="304"/>
      <point x="661" y="234" type="curve" smooth="yes"/>
      <point x="661" y="0" type="line"/>
    </contour>
    <contour>
      <point x="768" y="0" type="line"/>
      <point x="768" y="23" type="line"/>
      <point x="586" y="23" type="line"/>
      <point x="586" y="0" type="line"/>
    </contour>
    <contour>
      <point x="400" y="387" type="move" name="top"/>
    </contour>
    <contour>
      <point x="400" y="0" type="move" name="bottom"/>
    </contour>
  </outline>
</glyph>
<glyph name="o" format="1">
  <advance width="460"/>
  <unicode hex="006F"/>
  <outline>
    <contour>
      <point x="332" y="-10"/>
      <point x="415" y="63"/>
      <point x="415" y="178" type="curve"/>
      <point x="415" y="293"/>
      <point x="332" y="366"/>
      <point x="230" y="367" type="curve"/>
      <point x="128" y="366"/>
      <point x="45" y="293"/>
      <point x="45" y="178" type="curve"/>
      <point x="45" y="63"/>
      <point x="128" y="-10"/>
      <point x="230" y="-11" type="curve"/>
    </contour>
    <contour>
      <point x="137" y="12"/>
      <point x="71" y="79"/>
      <point x="71" y="178" type="curve"/>
      <point x="71" y="277"/>
      <point x="137" y="344"/>
      <point x="230" y="344" type="curve"/>
      <point x="323" y="344"/>
      <point x="389" y="277"/>
      <point x="389" y="178" type="curve"/>
      <point x="389" y="79"/>
      <point x="323" y="12"/>
      <point x="230" y="12" type="curve"/>
    </contour>
    <contour>
      <point x="230" y="-10" type="move" name="bottom"/>
    </contour>
    <contour>
      <point x="229" y="-11" type="move" name="ogonek"/>
    </contour>
    <contour>
      <point x="230" y="367" type="move" name="top"/>
    </contour>
    <contour>
      <point x="404" y="357" type="move" name="topright"/>
    </contour>
    <contour>
      <point x="230" y="179" type="move" name="center"/>
    </contour>
  </outline>
</glyph>
<glyph name="s" format="1">
  <advance width="414"/>
  <unicode hex="0073"/>
  <outline>
    <contour>
      <point x="298" y="-10"/>
      <point x="359" y="17"/>
      <point x="359" y="77" type="curve" smooth="yes"/>
      <point x="359" y="150"/>
      <point x="282" y="173"/>
      <point x="207" y="192" type="curve" smooth="yes"/>
      <point x="143" y="208"/>
      <point x="81" y="230"/>
      <point x="81" y="275" type="curve" smooth="yes"/>
      <point x="81" y="319"/>
      <point x="123" y="345"/>
      <point x="177" y="345" type="curve" smooth="yes"/>
      <point x="242" y="345"/>
      <point x="305" y="309"/>
      <point x="337" y="243" type="curve"/>
      <point x="349" y="245" type="line"/>
      <point x="349" y="357" type="line"/>
      <point x="326" y="357" type="line"/>
      <point x="326" y="284" type="line"/>
      <point x="341" y="267" type="line"/>
      <point x="318" y="319"/>
      <point x="251" y="367"/>
      <point x="177" y="367" type="curve" smooth="yes"/>
      <point x="104" y="367"/>
      <point x="55" y="328"/>
      <point x="55" y="273" type="curve" smooth="yes"/>
      <point x="55" y="212"/>
      <point x="132" y="185"/>
      <point x="206" y="167" type="curve" smooth="yes"/>
      <point x="271" y="151"/>
      <point x="333" y="131"/>
      <point x="333" y="76" type="curve" smooth="yes"/>
      <point x="333" y="34"/>
      <point x="286" y="14"/>
      <point x="239" y="14" type="curve" smooth="yes"/>
      <point x="169" y="14"/>
      <point x="100" y="57"/>
      <point x="62" y="114" type="curve"/>
      <point x="50" y="112" type="line"/>
      <point x="50" y="0" type="line"/>
      <point x="73" y="0" type="line"/>
      <point x="73" y="75" type="line"/>
      <point x="58" y="92" type="line"/>
      <point x="77" y="43"/>
      <point x="166" y="-10"/>
      <point x="239" y="-10" type="curve" smooth="yes"/>
    </contour>
    <contour>
      <point x="198" y="387" type="move" name="top"/>
    </contour>
    <contour>
      <point x="218" y="-5" type="move" name="bottom"/>
    </contour>
  </outline>
</glyph>
<glyph name="t" format="1">
  <advance width="337"/>
  <unicode hex="0074"/>
  <outline>
    <contour>
      <point x="262" y="-10"/>
      <point x="293" y="6"/>
      <point x="322" y="20" type="curve"/>
      <point x="312" y="41" type="line"/>
      <point x="285" y="26"/>
      <point x="255" y="13"/>
      <point x="217" y="13" type="curve" smooth="yes"/>
      <point x="181" y="13"/>
      <point x="137" y="30"/>
      <point x="137" y="107" type="curve"/>
      <point x="137" y="456" type="line"/>
      <point x="112" y="456" type="line"/>
      <point x="112" y="109" type="line"/>
      <point x="112" y="21"/>
      <point x="162" y="-10"/>
      <point x="217" y="-10" type="curve" smooth="yes"/>
    </contour>
    <contour>
      <point x="276" y="334" type="line"/>
      <point x="276" y="357" type="line"/>
      <point x="20" y="357" type="line"/>
      <point x="20" y="334" type="line"/>
    </contour>
    <contour>
      <point x="220" y="-10" type="move" name="bottom"/>
    </contour>
    <contour>
      <point x="180" y="456" type="move" name="top"/>
    </contour>
    <contour>
      <point x="273" y="419" type="move" name="topright"/>
    </contour>
    <contour>
      <point x="180" y="179" type="move" name="center"/>
    </contour>
  </outline>
</glyph>
<glyph name="u" format="1">
  <advance width="504"/>
  <unicode hex="0075"/>
  <outline>
    <contour>
      <point x="280" y="-10"/>
      <point x="340" y="40"/>
      <point x="391" y="103" type="curve"/>
      <point x="391" y="126" type="line"/>
      <point x="339" y="61"/>
      <point x="274" y="13"/>
      <point x="213" y="13" type="curve" smooth="yes"/>
      <point x="151" y="13"/>
      <point x="124" y="53"/>
      <point x="124" y="123" type="curve" smooth="yes"/>
      <point x="124" y="357" type="line"/>
      <point x="99" y="357" type="line"/>
      <point x="99" y="118" type="line" smooth="yes"/>
      <point x="99" y="33"/>
      <point x="141" y="-10"/>
      <point x="208" y="-10" type="curve" smooth="yes"/>
    </contour>
    <contour>
      <point x="112" y="334" type="line"/>
      <point x="112" y="357" type="line"/>
      <point x="17" y="357" type="line"/>
      <point x="17" y="334" type="line"/>
    </contour>
    <contour>
      <point x="450" y="-10"/>
      <point x="462" y="-5"/>
      <point x="474" y="2" type="curve"/>
      <point x="465" y="23" type="line"/>
      <point x="456" y="17"/>
      <point x="448" y="14"/>
      <point x="435" y="14" type="curve" smooth="yes"/>
      <point x="415" y="14"/>
      <point x="402" y="29"/>
      <point x="402" y="68" type="curve"/>
      <point x="402" y="357" type="line"/>
      <point x="377" y="357" type="line"/>
      <point x="377" y="68" type="line"/>
      <point x="377" y="18"/>
      <point x="397" y="-10"/>
      <point x="434" y="-10" type="curve" smooth="yes"/>
    </contour>
    <contour>
      <point x="394" y="334" type="line"/>
      <point x="394" y="357" type="line"/>
      <point x="302" y="357" type="line"/>
      <point x="302" y="334" type="line"/>
    </contour>
    <contour>
      <point x="474" y="2" type="move" name="ogonek"/>
    </contour>
    <contour>
      <point x="238" y="357" type="move" name="top"/>
    </contour>
    <contour>
      <point x="474" y="357" type="move" name="topright"/>
    </contour>
    <contour>
      <point x="208" y="0" type="move" name="bottom"/>
    </contour>
  </outline>
</glyph>
<glyph name="w" format="1">
  <advance width="722"/>
  <unicode hex="0077"/>
  <outline>
    <contour>
      <point x="247" y="-10" type="line"/>
      <point x="450" y="348" type="line"/>
      <point x="427" y="348" type="line"/>
      <point x="246" y="31" type="line"/>
      <point x="94" y="348" type="line"/>
      <point x="67" y="348" type="line"/>
      <point x="241" y="-10" type="line"/>
    </contour>
    <contour>
      <point x="482" y="-10" type="line"/>
      <point x="655" y="348" type="line"/>
      <point x="631" y="348" type="line"/>
      <point x="480" y="31" type="line"/>
      <point x="299" y="348" type="line"/>
      <point x="272" y="348" type="line"/>
      <point x="476" y="-10" type="line"/>
    </contour>
    <contour>
      <point x="83" y="334" type="line"/>
      <point x="93" y="334" type="line"/>
      <point x="176" y="334" type="line"/>
      <point x="176" y="357" type="line"/>
      <point x="5" y="357" type="line"/>
      <point x="5" y="334" type="line"/>
    </contour>
    <contour>
      <point x="293" y="334" type="line"/>
      <point x="429" y="334" type="line"/>
      <point x="508" y="334" type="line"/>
      <point x="508" y="357" type="line"/>
      <point x="220" y="357" type="line"/>
      <point x="220" y="334" type="line"/>
    </contour>
    <contour>
      <point x="633" y="334" type="line"/>
      <point x="639" y="334" type="line"/>
      <point x="717" y="334" type="line"/>
      <point x="717" y="357" type="line"/>
      <point x="549" y="357" type="line"/>
      <point x="549" y="334" type="line"/>
    </contour>
    <contour>
      <point x="363" y="357" type="move" name="top"/>
    </contour>
    <contour>
      <point x="363" y="0" type="move" name="bottom"/>
    </contour>
  </outline>
</glyph>
<glyph name="currency" format="1">
  <advance width="441"/>
  <unicode hex="00A4"/>
  <outline>
    <contour>
      <point x="291" y="127"/>
      <point x="349" y="176"/>
      <point x="349" y="247" type="curve"/>
      <point x="349" y="319"/>
      <point x="291" y="368"/>
      <point x="220" y="368" type="curve"/>
      <point x="152" y="368"/>
      <point x="92" y="319"/>
      <point x="92" y="247" type="curve"/>
      <point x="92" y="176"/>
      <point x="152" y="127"/>
      <point x="220" y="127" type="curve"/>
    </contour>
    <contour>
      <point x="154" y="155" type="line"/>
      <point x="136" y="170" type="line"/>
      <point x="55" y="74" type="line"/>
      <point x="74" y="59" type="line"/>
    </contour>
    <contour>
      <point x="386" y="74" type="line"/>
      <point x="305" y="170" type="line"/>
      <point x="287" y="155" type="line"/>
      <point x="367" y="59" type="line"/>
    </contour>
    <contour>
      <point x="154" y="340" type="line"/>
      <point x="74" y="436" type="line"/>
      <point x="55" y="421" type="line"/>
      <point x="136" y="325" type="line"/>
    </contour>
    <contour>
      <point x="386" y="421" type="line"/>
      <point x="367" y="436" type="line"/>
      <point x="287" y="340" type="line"/>
      <point x="305" y="325" type="line"/>
    </contour>
    <contour>
      <point x="166" y="150"/>
      <point x="117" y="189"/>
      <point x="117" y="248" type="curve"/>
      <point x="117" y="306"/>
      <point x="166" y="345"/>
      <point x="220" y="345" type="curve"/>
      <point x="277" y="345"/>
      <point x="324" y="306"/>
      <point x="324" y="248" type="curve"/>
      <point x="324" y="189"/>
      <point x="277" y="150"/>
      <point x="220" y="150" type="curve"/>
    </contour>
  </outline>
</glyph>
<glyph name="copyright" format="1">
  <advance width="774"/>
  <unicode hex="00A9"/>
  <outline>
    <contour>
      <point x="571" y="-165"/>
      <point x="734" y="-25"/>
      <point x="734" y="177" type="curve"/>
      <point x="734" y="379"/>
      <point x="571" y="519"/>
      <point x="387" y="519" type="curve"/>
      <point x="203" y="519"/>
      <point x="40" y="379"/>
      <point x="40" y="177" type="curve"/>
      <point x="40" y="-25"/>
      <point x="203" y="-165"/>
      <point x="387" y="-165" type="curve"/>
    </contour>
    <contour>
      <point x="450" y="3"/>
      <point x="491" y="31"/>
      <point x="523" y="64" type="curve"/>
      <point x="508" y="83" type="line"/>
      <point x="479" y="52"/>
      <point x="441" y="25"/>
      <point x="383" y="26" type="curve" smooth="yes"/>
      <point x="316" y="27"/>
      <point x="247" y="84"/>
      <point x="247" y="169" type="curve" smooth="yes"/>
      <point x="247" y="254"/>
      <point x="307" y="314"/>
      <point x="383" y="314" type="curve" smooth="yes"/>
      <point x="445" y="314"/>
      <point x="488" y="283"/>
      <point x="512" y="219" type="curve"/>
      <point x="524" y="220" type="line"/>
      <point x="524" y="329" type="line"/>
      <point x="501" y="329" type="line"/>
      <point x="501" y="252" type="line"/>
      <point x="514" y="246" type="line"/>
      <point x="498" y="297"/>
      <point x="448" y="337"/>
      <point x="383" y="338" type="curve" smooth="yes"/>
      <point x="293" y="338"/>
      <point x="222" y="268"/>
      <point x="222" y="169" type="curve" smooth="yes"/>
      <point x="222" y="63"/>
      <point x="304" y="3"/>
      <point x="383" y="3" type="curve" smooth="yes"/>
    </contour>
    <contour>
      <point x="214" y="-142"/>
      <point x="65" y="-7"/>
      <point x="65" y="177" type="curve"/>
      <point x="65" y="361"/>
      <point x="214" y="496"/>
      <point x="387" y="496" type="curve"/>
      <point x="560" y="496"/>
      <point x="709" y="361"/>
      <point x="709" y="177" type="curve"/>
      <point x="709" y="-7"/>
      <point x="560" y="-142"/>
      <point x="387" y="-142" type="curve"/>
    </contour>
  </outline>
</glyph>
<glyph name="guillemotleft" format="1">
  <advance width="524"/>
  <unicode hex="00AB"/>
  <outline>
    <contour>
      <point x="464" y="-9" type="line"/>
      <point x="448" y="105"/>
      <point x="339" y="188"/>
      <point x="246" y="188" type="curve"/>
      <point x="246" y="181" type="line"/>
      <point x="339" y="181"/>
      <point x="448" y="264"/>
      <point x="464" y="378" type="curve"/>
      <point x="444" y="382" type="line"/>
      <point x="425" y="273"/>
      <point x="322" y="196"/>
      <point x="227" y="196" type="curve" smooth="yes"/>
      <point x="215" y="196" type="line"/>
      <point x="215" y="173" type="line"/>
      <point x="227" y="173" type="line" smooth="yes"/>
      <point x="322" y="173"/>
      <point x="425" y="96"/>
      <point x="444" y="-13" type="curve"/>
    </contour>
    <contour>
      <point x="269" y="-9" type="line"/>
      <point x="253" y="105"/>
      <point x="144" y="188"/>
      <point x="51" y="188" type="curve"/>
      <point x="51" y="181" type="line"/>
      <point x="144" y="181"/>
      <point x="253" y="264"/>
      <point x="269" y="378" type="curve"/>
      <point x="249" y="382" type="line"/>
      <point x="230" y="273"/>
      <point x="127" y="196"/>
      <point x="32" y="196" type="curve" smooth="yes"/>
      <point x="20" y="196" type="line"/>
      <point x="20" y="173" type="line"/>
      <point x="32" y="173" type="line" smooth="yes"/>
      <point x="127" y="173"/>
      <point x="230" y="96"/>
      <point x="249" y="-13" type="curve"/>
    </contour>
  </outline>
</glyph>
<glyph name="ordmasculine" format="1">
  <advance width="308"/>
  <unicode hex="00BA"/>
  <outline>
    <contour>
      <point x="214" y="310"/>
      <point x="263" y="353"/>
      <point x="263" y="421" type="curve"/>
      <point x="263" y="488"/>
      <point x="214" y="531"/>
      <point x="154" y="532" type="curve"/>
      <point x="94" y="531"/>
      <point x="45" y="488"/>
      <point x="45" y="421" type="curve"/>
      <point x="45" y="353"/>
      <point x="94" y="310"/>
      <point x="154" y="310" type="curve"/>
    </contour>
    <contour>
      <point x="103" y="330"/>
      <point x="68" y="370"/>
      <point x="68" y="421" type="curve"/>
      <point x="68" y="471"/>
      <point x="103" y="511"/>
      <point x="154" y="511" type="curve"/>
      <point x="206" y="511"/>
      <point x="241" y="471"/>
      <point x="241" y="421" type="curve"/>
      <point x="241" y="370"/>
      <point x="206" y="330"/>
      <point x="154" y="330" type="curve"/>
    </contour>
    <contour>
      <point x="55" y="212" type="line"/>
      <point x="253" y="212" type="line"/>
      <point x="253" y="233" type="line"/>
      <point x="55" y="233" type="line"/>
    </contour>
  </outline>
</glyph>
<glyph name="oslash" format="1">
  <advance width="460"/>
  <unicode hex="00F8"/>
  <outline>
    <contour>
      <point x="181" y="3" type="line"/>
      <point x="184" y="12" type="line"/>
      <point x="303" y="337" type="line"/>
      <point x="306" y="344" type="line"/>
      <point x="331" y="411" type="line"/>
      <point x="306" y="411" type="line"/>
      <point x="285" y="353" type="line"/>
      <point x="282" y="346" type="line"/>
      <point x="161" y="18" type="line"/>
      <point x="158" y="11" type="line"/>
      <point x="133" y="-59" type="line"/>
      <point x="158" y="-59" type="line"/>
    </contour>
    <component base="o"/>
  </outline>
</glyph>
<glyph name="dotlessi" format="1">
  <advance width="254"/>
  <unicode hex="0131"/>
  <outline>
    <contour>
      <point x="142" y="0" type="line"/>
      <point x="142" y="357" type="line"/>
      <point x="117" y="357" type="line"/>
      <point x="117" y="0" type="line"/>
    </contour>
    <contour>
      <point x="234" y="0" type="line"/>
      <point x="234" y="23" type="line"/>
      <point x="25" y="23" type="line"/>
      <point x="25" y="0" type="line"/>
    </contour>
    <contour>
      <point x="142" y="334" type="line"/>
      <point x="142" y="357" type="line"/>
      <point x="25" y="357" type="line"/>
      <point x="25" y="334" type="line"/>
    </contour>
    <contour>
      <point x="234" y="0" type="move" name="ogonek"/>
    </contour>
    <contour>
      <point x="129" y="0" type="move" name="bottom"/>
    </contour>
    <contour>
      <point x="104" y="357" type="move" name="top"/>
    </contour>
  </outline>
</glyph>
<glyph name="OE" format="1">
  <advance width="828"/>
  <unicode hex="0152"/>
  <outline>
    <contour>
      <point x="758" y="0" type="line"/>
      <point x="758" y="136" type="line"/>
      <point x="734" y="136" type="line"/>
      <point x="734" y="23" type="line"/>
      <point x="340" y="23" type="line" smooth="yes"/>
      <point x="177" y="23"/>
      <point x="75" y="111"/>
      <point x="75" y="255" type="curve" smooth="yes"/>
      <point x="75" y="399"/>
      <point x="177" y="497"/>
      <point x="340" y="497" type="curve" smooth="yes"/>
      <point x="733" y="497" type="line"/>
      <point x="733" y="384" type="line"/>
      <point x="758" y="384" type="line"/>
      <point x="758" y="520" type="line"/>
      <point x="340" y="520" type="line" smooth="yes"/>
      <point x="167" y="520"/>
      <point x="50" y="416"/>
      <point x="50" y="255" type="curve" smooth="yes"/>
      <point x="50" y="94"/>
      <point x="167" y="0"/>
      <point x="340" y="0" type="curve" smooth="yes"/>
    </contour>
    <contour>
      <point x="439" y="13" type="line"/>
      <point x="439" y="507" type="line"/>
      <point x="414" y="507" type="line"/>
      <point x="414" y="13" type="line"/>
    </contour>
    <contour>
      <point x="599" y="261" type="line"/>
      <point x="599" y="284" type="line"/>
      <point x="436" y="284" type="line"/>
      <point x="436" y="261" type="line"/>
    </contour>
    <contour>
      <point x="612" y="178" type="line"/>
      <point x="612" y="367" type="line"/>
      <point x="587" y="367" type="line"/>
      <point x="587" y="178" type="line"/>
    </contour>
    <contour>
      <point x="456" y="0" type="move" name="bottom"/>
    </contour>
    <contour>
      <point x="758" y="0" type="move" name="ogonek"/>
    </contour>
    <contour>
      <point x="456" y="520" type="move" name="top"/>
    </contour>
    <contour>
      <point x="456" y="245" type="move" name="center"/>
    </contour>
  </outline>
</glyph>
<glyph name="uni0302" format="1">
  <advance width="334"/>
  <unicode hex="0302"/>
  <outline>
    <contour>
      <point x="167" y="672" type="line"/>
      <point x="288" y="553" type="line"/>
      <point x="299" y="564" type="line"/>
      <point x="177" y="700" type="line"/>
      <point x="157" y="700" type="line"/>
      <point x="35" y="564" type="line"/>
      <point x="46" y="553" type="line"/>
    </contour>
    <contour>
      <point x="167" y="520" type="move" name="_top"/>
    </contour>
  </outline>
</glyph>
<glyph name="uni0304" format="1">
  <advance width="404"/>
  <unicode hex="0304"/>
  <outline>
    <contour>
      <point x="55" y="658" type="line"/>
      <point x="55" y="634" type="line"/>
      <point x="349" y="634" type="line"/>
      <point x="349" y="658" type="line"/>
    </contour>
    <contour>
      <point x="202" y="557" type="move" name="_top"/>
    </contour>
  </outline>
</glyph>
<glyph name="uni0306" format="1">
  <advance width="388"/>
  <unicode hex="0306"/>
  <outline>
    <contour>
      <point x="258" y="607"/>
      <point x="299" y="652"/>
      <point x="313" y="718" type="curve"/>
      <point x="333" y="715" type="line"/>
      <point x="324" y="649"/>
      <point x="281" y="583"/>
      <point x="194" y="583" type="curve"/>
      <point x="107" y="583"/>
      <point x="64" y="649"/>
      <point x="55" y="715" type="curve"/>
      <point x="75" y="718" type="line"/>
      <point x="89" y="652"/>
      <point x="132" y="607"/>
      <point x="195" y="607" type="curve"/>
    </contour>
    <contour>
      <point x="194" y="520" type="move" name="_top"/>
    </contour>
  </outline>
</glyph>
<glyph name="uni0307" format="1">
  <advance width="199"/>
  <unicode hex="0307"/>
  <outline>
    <contour>
      <point x="123" y="618"/>
      <point x="139" y="631"/>
      <point x="139" y="648" type="curve"/>
      <point x="139" y="666"/>
      <point x="123" y="679"/>
      <point x="99" y="679" type="curve"/>
      <point x="77" y="679"/>
      <point x="60" y="666"/>
      <point x="60" y="648" type="curve"/>
      <point x="60" y="631"/>
      <point x="77" y="618"/>
      <point x="99" y="618" type="curve"/>
    </contour>
    <contour>
      <point x="99" y="557" type="move" name="_top"/>
    </contour>
  </outline>
</glyph>
<glyph name="uni0308" format="1">
  <advance width="451"/>
  <unicode hex="0308"/>
  <outline>
    <contour>
      <point x="320" y="618"/>
      <point x="336" y="631"/>
      <point x="336" y="648" type="curve"/>
      <point x="336" y="666"/>
      <point x="320" y="679"/>
      <point x="296" y="679" type="curve"/>
      <point x="274" y="679"/>
      <point x="257" y="666"/>
      <point x="257" y="648" type="curve"/>
      <point x="257" y="631"/>
      <point x="274" y="618"/>
      <point x="296" y="618" type="curve"/>
    </contour>
    <contour>
      <point x="168" y="618"/>
      <point x="184" y="631"/>
      <point x="184" y="648" type="curve"/>
      <point x="184" y="666"/>
      <point x="168" y="679"/>
      <point x="144" y="679" type="curve"/>
      <point x="122" y="679"/>
      <point x="105" y="666"/>
      <point x="105" y="648" type="curve"/>
      <point x="105" y="631"/>
      <point x="122" y="618"/>
      <point x="144" y="618" type="curve"/>
    </contour>
    <contour>
      <point x="220" y="520" type="move" name="_top"/>
    </contour>
  </outline>
</glyph>
<glyph name="hookabovecomb" format="1">
  <advance width="600"/>
  <unicode hex="0309"/>
  <outline>
    <contour>
      <point x="233" y="554" type="line"/>
      <point x="266" y="587"/>
      <point x="288" y="614"/>
      <point x="288" y="651" type="curve" smooth="yes"/>
      <point x="288" y="696"/>
      <point x="249" y="726"/>
      <point x="199" y="726" type="curve" smooth="yes"/>
      <point x="159" y="726"/>
      <point x="127" y="709"/>
      <point x="102" y="692" type="curve"/>
      <point x="113" y="674" type="line"/>
      <point x="139" y="689"/>
      <point x="166" y="703"/>
      <point x="199" y="703" type="curve" smooth="yes"/>
      <point x="238" y="703"/>
      <point x="263" y="682"/>
      <point x="263" y="648" type="curve" smooth="yes"/>
      <point x="263" y="614"/>
      <point x="240" y="591"/>
      <point x="223" y="563" type="curve"/>
    </contour>
    <contour>
      <point x="174" y="510" type="move" name="_hook"/>
    </contour>
  </outline>
</glyph>
<glyph name="uni0312" format="1">
  <advance width="199"/>
  <unicode hex="0312"/>
  <outline>
    <contour>
      <point x="55" y="540"/>
      <point x="74" y="520"/>
      <point x="104" y="520" type="curve" smooth="yes"/>
      <point x="126" y="520"/>
      <point x="144" y="535"/>
      <point x="144" y="554" type="curve" smooth="yes"/>
      <point x="144" y="573"/>
      <point x="126" y="585"/>
      <point x="107" y="585" type="curve" smooth="yes"/>
      <point x="94" y="585"/>
      <point x="87" y="583"/>
      <point x="76" y="580" type="curve"/>
      <point x="80" y="624"/>
      <point x="107" y="660"/>
      <point x="144" y="698" type="curve"/>
      <point x="133" y="710" type="line"/>
      <point x="85" y="669"/>
      <point x="55" y="615"/>
      <point x="55" y="572" type="curve" smooth="yes"/>
    </contour>
    <contour>
      <point x="104" y="443" type="move" name="_top"/>
    </contour>
  </outline>
</glyph>
<glyph name="uni0335" format="1">
  <advance width="447"/>
  <unicode hex="0335"/>
  <outline>
    <contour>
      <point x="70" y="247" type="line"/>
      <point x="70" y="224" type="line"/>
      <point x="407" y="224" type="line"/>
      <point x="407" y="247" type="line"/>
    </contour>
  </outline>
</glyph>
<glyph name="quoteleft" format="1">
  <advance width="209"/>
  <unicode hex="2018"/>
  <outline>
    <contour>
      <point x="126" y="367"/>
      <point x="144" y="382"/>
      <point x="144" y="401" type="curve" smooth="yes"/>
      <point x="144" y="420"/>
      <point x="126" y="432"/>
      <point x="107" y="432" type="curve" smooth="yes"/>
      <point x="94" y="432"/>
      <point x="87" y="430"/>
      <point x="76" y="427" type="curve"/>
      <point x="80" y="471"/>
      <point x="107" y="512"/>
      <point x="154" y="560" type="curve"/>
      <point x="143" y="572" type="line"/>
      <point x="85" y="521"/>
      <point x="55" y="462"/>
      <point x="55" y="419" type="curve" smooth="yes"/>
      <point x="55" y="387"/>
      <point x="74" y="367"/>
      <point x="104" y="367" type="curve" smooth="yes"/>
    </contour>
  </outline>
</glyph>
<glyph name="quoteright" format="1">
  <advance width="209"/>
  <unicode hex="2019"/>
  <outline>
    <contour>
      <point x="124" y="409"/>
      <point x="154" y="468"/>
      <point x="154" y="511" type="curve" smooth="yes"/>
      <point x="154" y="543"/>
      <point x="135" y="563"/>
      <point x="105" y="563" type="curve" smooth="yes"/>
      <point x="83" y="563"/>
      <point x="65" y="548"/>
      <point x="65" y="529" type="curve" smooth="yes"/>
      <point x="65" y="510"/>
      <point x="83" y="498"/>
      <point x="102" y="498" type="curve" smooth="yes"/>
      <point x="115" y="498"/>
      <point x="122" y="500"/>
      <point x="133" y="503" type="curve"/>
      <point x="129" y="459"/>
      <point x="102" y="418"/>
      <point x="55" y="370" type="curve"/>
      <point x="66" y="358" type="line"/>
    </contour>
  </outline>
</glyph>
<glyph name="bullet" format="1">
  <advance width="259"/>
  <unicode hex="2022"/>
  <outline>
    <contour>
      <point x="167" y="200"/>
      <point x="194" y="222"/>
      <point x="194" y="250" type="curve"/>
      <point x="194" y="279"/>
      <point x="167" y="301"/>
      <point x="129" y="301" type="curve"/>
      <point x="93" y="301"/>
      <point x="65" y="279"/>
      <point x="65" y="250" type="curve"/>
      <point x="65" y="222"/>
      <point x="93" y="200"/>
      <point x="129" y="200" type="curve"/>
    </contour>
  </outline>
</glyph>
<glyph name="guilsinglright" format="1">
  <advance width="329"/>
  <unicode hex="203A"/>
  <outline>
    <contour>
      <point x="99" y="96"/>
      <point x="202" y="173"/>
      <point x="297" y="173" type="curve" smooth="yes"/>
      <point x="309" y="173" type="line"/>
      <point x="309" y="196" type="line"/>
      <point x="297" y="196" type="line" smooth="yes"/>
      <point x="202" y="196"/>
      <point x="99" y="273"/>
      <point x="80" y="382" type="curve"/>
      <point x="60" y="378" type="line"/>
      <point x="76" y="264"/>
      <point x="185" y="181"/>
      <point x="278" y="181" type="curve"/>
      <point x="278" y="188" type="line"/>
      <point x="185" y="188"/>
      <point x="76" y="105"/>
      <point x="60" y="-9" type="curve"/>
      <point x="80" y="-13" type="line"/>
    </contour>
  </outline>
</glyph>
<glyph name="uni2120" format="1">
  <advance width="614"/>
  <unicode hex="2120"/>
  <outline>
    <contour>
      <point x="208" y="296"/>
      <point x="239" y="317"/>
      <point x="239" y="353" type="curve" smooth="yes"/>
      <point x="239" y="392"/>
      <point x="199" y="410"/>
      <point x="143" y="424" type="curve" smooth="yes"/>
      <point x="93" y="438"/>
      <point x="71" y="449"/>
      <point x="71" y="469" type="curve" smooth="yes"/>
      <point x="71" y="489"/>
      <point x="92" y="501"/>
      <point x="118" y="501" type="curve" smooth="yes"/>
      <point x="165" y="501"/>
      <point x="197" y="474"/>
      <point x="226" y="436" type="curve"/>
      <point x="230" y="437" type="line"/>
      <point x="230" y="520" type="line"/>
      <point x="207" y="520" type="line"/>
      <point x="207" y="470" type="line"/>
      <point x="223" y="460" type="line"/>
      <point x="205" y="494"/>
      <point x="165" y="524"/>
      <point x="118" y="524" type="curve" smooth="yes"/>
      <point x="77" y="524"/>
      <point x="46" y="503"/>
      <point x="46" y="467" type="curve" smooth="yes"/>
      <point x="46" y="428"/>
      <point x="86" y="410"/>
      <point x="142" y="396" type="curve" smooth="yes"/>
      <point x="192" y="382"/>
      <point x="214" y="371"/>
      <point x="214" y="351" type="curve" smooth="yes"/>
      <point x="214" y="331"/>
      <point x="193" y="319"/>
      <point x="162" y="319" type="curve" smooth="yes"/>
      <point x="115" y="319"/>
      <point x="78" y="346"/>
      <point x="49" y="384" type="curve"/>
      <point x="45" y="383" type="line"/>
      <point x="45" y="300" type="line"/>
      <point x="68" y="300" type="line"/>
      <point x="68" y="350" type="line"/>
      <point x="52" y="360" type="line"/>
      <point x="70" y="326"/>
      <point x="115" y="296"/>
      <point x="162" y="296" type="curve" smooth="yes"/>
    </contour>
    <contour>
      <point x="419" y="296" type="line"/>
      <point x="423" y="337" type="line"/>
      <point x="333" y="520" type="line"/>
      <point x="305" y="520" type="line"/>
      <point x="417" y="296" type="line"/>
    </contour>
    <contour>
      <point x="365" y="300" type="line"/>
      <point x="365" y="323" type="line"/>
      <point x="267" y="323" type="line"/>
      <point x="267" y="300" type="line"/>
    </contour>
    <contour>
      <point x="330" y="305" type="line"/>
      <point x="330" y="520" type="line"/>
      <point x="305" y="520" type="line"/>
      <point x="305" y="305" type="line"/>
    </contour>
    <contour>
      <point x="328" y="497" type="line"/>
      <point x="328" y="520" type="line"/>
      <point x="267" y="520" type="line"/>
      <point x="267" y="497" type="line"/>
    </contour>
    <contour>
      <point x="569" y="300" type="line"/>
      <point x="569" y="323" type="line"/>
      <point x="471" y="323" type="line"/>
      <point x="471" y="300" type="line"/>
    </contour>
    <contour>
      <point x="419" y="296" type="line"/>
      <point x="532" y="520" type="line"/>
      <point x="505" y="520" type="line"/>
      <point x="415" y="336" type="line"/>
      <point x="417" y="296" type="line"/>
    </contour>
    <contour>
      <point x="531" y="305" type="line"/>
      <point x="531" y="520" type="line"/>
      <point x="506" y="520" type="line"/>
      <point x="506" y="305" type="line"/>
    </contour>
    <contour>
      <point x="569" y="497" type="line"/>
      <point x="569" y="520" type="line"/>
      <point x="509" y="520" type="line"/>
      <point x="509" y="497" type="line"/>
    </contour>
  </outline>
</glyph>
<glyph name="d.alt" format="1">
  <advance width="492"/>
  <outline>
    <contour>
      <point x="280" y="-10"/>
      <point x="335" y="31"/>
      <point x="372" y="67" type="curve"/>
      <point x="372" y="94" type="line"/>
      <point x="330" y="52"/>
      <point x="280" y="14"/>
      <point x="211" y="13" type="curve" smooth="yes"/>
      <point x="133" y="12"/>
      <point x="70" y="72"/>
      <point x="70" y="171" type="curve" smooth="yes"/>
      <point x="70" y="272"/>
      <point x="140" y="345"/>
      <point x="223" y="345" type="curve" smooth="yes"/>
      <point x="290" y="345"/>
      <point x="338" y="311"/>
      <point x="379" y="268" type="curve"/>
      <point x="379" y="291" type="line"/>
      <point x="338" y="333"/>
      <point x="290" y="367"/>
      <point x="223" y="367" type="curve" smooth="yes"/>
      <point x="129" y="367"/>
      <point x="45" y="290"/>
      <point x="45" y="170" type="curve" smooth="yes"/>
      <point x="45" y="59"/>
      <point x="120" y="-10"/>
      <point x="211" y="-10" type="curve" smooth="yes"/>
    </contour>
    <contour>
      <point x="462" y="-5"/>
      <point x="487" y="26"/>
      <point x="487" y="68" type="curve" smooth="yes"/>
      <point x="487" y="87" type="line"/>
      <point x="464" y="87" type="line"/>
      <point x="464" y="68" type="line" smooth="yes"/>
      <point x="464" y="39"/>
      <point x="450" y="18"/>
      <point x="424" y="18" type="curve" smooth="yes"/>
      <point x="399" y="18"/>
      <point x="383" y="37"/>
      <point x="383" y="70" type="curve" smooth="yes"/>
      <point x="383" y="520" type="line"/>
      <point x="359" y="520" type="line"/>
      <point x="359" y="70" type="line" smooth="yes"/>
      <point x="359" y="26"/>
      <point x="385" y="-5"/>
      <point x="424" y="-5" type="curve" smooth="yes"/>
    </contour>
    <contour>
      <point x="383" y="497" type="line"/>
      <point x="383" y="520" type="line"/>
      <point x="267" y="520" type="line"/>
      <point x="267" y="497" type="line"/>
    </contour>
    <contour>
      <point x="204" y="-20" type="move" name="bottom"/>
    </contour>
    <contour>
      <point x="214" y="377" type="move" name="top"/>
    </contour>
    <contour>
      <point x="498" y="357" type="move" name="topright"/>
    </contour>
    <contour>
      <point x="184" y="179" type="move" name="center"/>
    </contour>
  </outline>
</glyph>
<glyph name="f.alt" format="1">
  <advance width="287"/>
  <outline>
    <contour>
      <point x="57" y="426"/>
      <point x="81" y="387"/>
      <point x="117" y="348" type="curve"/>
      <point x="117" y="0" type="line"/>
      <point x="142" y="0" type="line"/>
      <point x="142" y="348" type="line"/>
      <point x="106" y="391"/>
      <point x="82" y="427"/>
      <point x="82" y="463" type="curve" smooth="yes"/>
      <point x="82" y="504"/>
      <point x="121" y="532"/>
      <point x="169" y="532" type="curve" smooth="yes"/>
      <point x="217" y="532"/>
      <point x="256" y="519"/>
      <point x="286" y="503" type="curve"/>
      <point x="297" y="523" type="line"/>
      <point x="264" y="540"/>
      <point x="219" y="555"/>
      <point x="170" y="555" type="curve" smooth="yes"/>
      <point x="105" y="555"/>
      <point x="57" y="517"/>
      <point x="57" y="463" type="curve" smooth="yes"/>
    </contour>
    <contour>
      <point x="25" y="357" type="line"/>
      <point x="25" y="334" type="line"/>
      <point x="251" y="334" type="line"/>
      <point x="251" y="357" type="line"/>
    </contour>
    <contour>
      <point x="25" y="0" type="line"/>
      <point x="239" y="0" type="line"/>
      <point x="239" y="23" type="line"/>
      <point x="25" y="23" type="line"/>
    </contour>
    <contour>
      <point x="109" y="357" type="move" name="top"/>
    </contour>
    <contour>
      <point x="109" y="0" type="move" name="bottom"/>
    </contour>
  </outline>
</glyph>
<glyph name="t.alt" format="1">
  <advance width="340"/>
  <outline>
    <contour>
      <point x="275" y="357" type="line"/>
      <point x="35" y="357" type="line"/>
      <point x="35" y="334" type="line"/>
      <point x="275" y="334" type="line"/>
    </contour>
    <contour>
      <point x="286" y="35" type="line"/>
      <point x="259" y="22"/>
      <point x="235" y="13"/>
      <point x="198" y="13" type="curve" smooth="yes"/>
      <point x="153" y="13"/>
      <point x="108" y="46"/>
      <point x="108" y="118" type="curve" smooth="yes"/>
      <point x="108" y="190"/>
      <point x="136" y="284"/>
      <point x="151" y="340" type="curve"/>
      <point x="152" y="347" type="line"/>
      <point x="152" y="456" type="line"/>
      <point x="127" y="456" type="line"/>
      <point x="127" y="348" type="line"/>
      <point x="128" y="342" type="line"/>
      <point x="112" y="284"/>
      <point x="83" y="191"/>
      <point x="83" y="118" type="curve" smooth="yes"/>
      <point x="83" y="32"/>
      <point x="136" y="-10"/>
      <point x="199" y="-10" type="curve" smooth="yes"/>
      <point x="235" y="-10"/>
      <point x="266" y="-1"/>
      <point x="295" y="15" type="curve"/>
    </contour>
    <contour>
      <point x="201" y="-10" type="move" name="bottom"/>
    </contour>
    <contour>
      <point x="161" y="456" type="move" name="top"/>
    </contour>
    <contour>
      <point x="254" y="419" type="move" name="topright"/>
    </contour>
    <contour>
      <point x="161" y="179" type="move" name="center"/>
    </contour>
  </outline>
</glyph>
<glyph name="w.bold" format="1">
  <advance width="661"/>
  <outline>
    <contour>
      <point x="83" y="333" type="line"/>
      <point x="89" y="333" type="line"/>
      <point x="173" y="333" type="line"/>
      <point x="173" y="356" type="line"/>
      <point x="5" y="356" type="line"/>
      <point x="5" y="333" type="line"/>
    </contour>
    <contour>
      <point x="196" y="-11" type="line"/>
      <point x="206" y="18" type="line"/>
      <point x="94" y="347" type="line"/>
      <point x="67" y="347" type="line"/>
      <point x="190" y="-11" type="line"/>
    </contour>
    <contour>
      <point x="196" y="-11" type="line"/>
      <point x="338" y="314" type="line"/>
      <point x="331" y="347" type="line"/>
      <point x="328" y="347" type="line"/>
      <point x="185" y="18" type="line"/>
      <point x="190" y="-11" type="line"/>
    </contour>
    <contour>
      <point x="471" y="-11" type="line"/>
      <point x="478" y="18" type="line"/>
      <point x="334" y="347" type="line"/>
      <point x="328" y="347" type="line"/>
      <point x="322" y="314" type="line"/>
      <point x="465" y="-11" type="line"/>
    </contour>
    <contour>
      <point x="471" y="-11" type="line"/>
      <point x="594" y="347" type="line"/>
      <point x="569" y="347" type="line"/>
      <point x="459" y="18" type="line"/>
      <point x="466" y="-11" type="line"/>
    </contour>
    <contour>
      <point x="572" y="333" type="line"/>
      <point x="578" y="333" type="line"/>
      <point x="656" y="333" type="line"/>
      <point x="656" y="356" type="line"/>
      <point x="488" y="356" type="line"/>
      <point x="488" y="333" type="line"/>
    </contour>
    <contour>
      <point x="332" y="357" type="move" name="top"/>
    </contour>
    <contour>
      <point x="332" y="0" type="move" name="bottom"/>
    </contour>
  </outline>
</glyph>
<glyph name="x.alt" format="1">
  <advance width="495"/>
  <outline>
    <contour>
      <point x="480" y="334" type="line"/>
      <point x="480" y="357" type="line"/>
      <point x="292" y="357" type="line"/>
      <point x="292" y="334" type="line"/>
    </contour>
    <contour>
      <point x="107" y="9" type="line"/>
      <point x="250" y="168" type="line"/>
      <point x="255" y="168" type="line"/>
      <point x="421" y="348" type="line"/>
      <point x="388" y="348" type="line"/>
      <point x="245" y="189" type="line"/>
      <point x="240" y="189" type="line"/>
      <point x="74" y="9" type="line"/>
    </contour>
    <contour>
      <point x="203" y="0" type="line"/>
      <point x="203" y="23" type="line"/>
      <point x="15" y="23" type="line"/>
      <point x="15" y="0" type="line"/>
    </contour>
    <contour>
      <point x="44" y="245" type="line"/>
      <point x="44" y="302"/>
      <point x="67" y="344"/>
      <point x="112" y="344" type="curve" smooth="yes"/>
      <point x="160" y="344"/>
      <point x="189" y="290"/>
      <point x="237" y="172" type="curve"/>
      <point x="238" y="169" type="line"/>
      <point x="282" y="61"/>
      <point x="315" y="-10"/>
      <point x="380" y="-10" type="curve" smooth="yes"/>
      <point x="450" y="-10"/>
      <point x="474" y="59"/>
      <point x="474" y="112" type="curve"/>
      <point x="449" y="112" type="line"/>
      <point x="449" y="55"/>
      <point x="425" y="13"/>
      <point x="380" y="13" type="curve" smooth="yes"/>
      <point x="332" y="13"/>
      <point x="304" y="66"/>
      <point x="257" y="181" type="curve"/>
      <point x="256" y="184" type="line"/>
      <point x="213" y="293"/>
      <point x="177" y="367"/>
      <point x="112" y="367" type="curve" smooth="yes"/>
      <point x="42" y="367"/>
      <point x="19" y="298"/>
      <point x="19" y="245" type="curve"/>
    </contour>
    <contour>
      <point x="265" y="357" type="move" name="top"/>
    </contour>
    <contour>
      <point x="265" y="0" type="move" name="bottom"/>
    </contour>
  </outline>
</glyph>
